<svg width="45" height="43" viewBox="0 0 45 43" fill="none" xmlns="http://www.w3.org/2000/svg">
<path d="M37.3621 28.985L35.3147 3.7345C35.2383 2.79314 35.4922 1.97884 36.0764 1.29161C36.6626 0.601979 37.4263 0.219 38.3677 0.142672C39.3091 0.0663435 40.1245 0.321271 40.8142 0.907457C41.5014 1.4916 41.8832 2.25435 41.9595 3.19571L44.6535 36.42C44.7298 37.3614 44.476 38.1768 43.892 38.8662C43.3056 39.5536 42.5418 39.9355 41.6004 40.0118L8.37613 42.7058C7.43477 42.7821 6.62048 42.5282 5.93324 41.944C5.24361 41.3578 4.86063 40.5941 4.7843 39.6527C4.70798 38.7114 4.9629 37.8959 5.54909 37.2062C6.13323 36.519 6.89599 36.1372 7.83734 36.0609L33.0878 34.0135L1.12058 6.84149C0.462083 6.28177 0.0946632 5.53123 0.0183349 4.58987C-0.0579931 3.64852 0.18371 2.84859 0.743433 2.19009C1.30316 1.53159 2.05369 1.16417 2.99504 1.08784C3.9364 1.01152 4.73633 1.25322 5.39483 1.81294L37.3621 28.985Z" fill="black"/>
</svg>
