<svg width="52" height="53" viewBox="0 0 52 53" fill="none" xmlns="http://www.w3.org/2000/svg">
<path d="M29.4437 41.805L46.5268 25.5584C47.1637 24.9527 47.9124 24.6496 48.7732 24.649C49.6369 24.6485 50.3876 24.9507 51.0253 25.5556C51.663 26.1605 51.9821 26.8731 51.9827 27.6934C51.9832 28.5109 51.6651 29.2225 51.0282 29.8282L28.5505 51.2053C27.9136 51.811 27.1641 52.1148 26.3019 52.1168C25.4397 52.1159 24.6897 51.813 24.052 51.2081L1.54482 29.859C0.907116 29.2541 0.587983 28.5429 0.58742 27.7254C0.586852 26.9051 0.905004 26.1921 1.54187 25.5864C2.17874 24.9807 2.92903 24.6776 3.79274 24.677C4.65345 24.6765 5.40266 24.9787 6.04036 25.5836L23.1458 41.8089L23.1196 3.78256C23.1191 2.99924 23.4372 2.30474 24.0741 1.69905C24.711 1.09337 25.4418 0.79028 26.2665 0.789764C27.0912 0.78925 27.8224 1.09143 28.4601 1.69632C29.0978 2.30122 29.4169 2.99533 29.4175 3.77864L29.4437 41.805Z" fill="#94B49F"/>
</svg>
