<svg width="22" height="38" viewBox="0 0 22 38" fill="none" xmlns="http://www.w3.org/2000/svg">
<path d="M0.070171 18.6331C0.0709614 18.1886 0.155062 17.7588 0.322469 17.3435C0.489878 16.9261 0.712717 16.5787 0.990989 16.3014L16.3516 0.995356C16.9638 0.385333 17.7421 0.0811628 18.6865 0.0828426C19.631 0.0845224 20.4082 0.39146 21.0182 1.00366C21.6283 1.61585 21.9324 2.39417 21.9307 3.33862C21.9291 4.28306 21.6221 5.06029 21.0099 5.67032L7.98683 18.6472L20.9637 31.6703C21.5737 32.2825 21.8779 33.0608 21.8762 34.0052C21.8745 34.9497 21.5676 35.7269 20.9554 36.3369C20.3432 36.947 19.5649 37.2511 18.6204 37.2495C17.676 37.2478 16.8987 36.9408 16.2887 36.3286L0.982689 20.9681C0.649949 20.6341 0.415036 20.2726 0.27795 19.8835C0.138643 19.4943 0.0693805 19.0775 0.070171 18.6331Z" fill="#202224"/>
</svg>
