<svg width="12" height="8" viewBox="0 0 12 8" fill="none" xmlns="http://www.w3.org/2000/svg">
<path d="M5.9998 7.07637C5.86647 7.07637 5.73747 7.05137 5.6128 7.00137C5.48747 6.95137 5.38314 6.8847 5.2998 6.80137L0.699804 2.20137C0.516471 2.01803 0.424805 1.7847 0.424805 1.50137C0.424805 1.21803 0.516471 0.9847 0.699804 0.801367C0.883138 0.618033 1.11647 0.526367 1.3998 0.526367C1.68314 0.526367 1.91647 0.618033 2.0998 0.801367L5.9998 4.70137L9.8998 0.801367C10.0831 0.618033 10.3165 0.526367 10.5998 0.526367C10.8831 0.526367 11.1165 0.618033 11.2998 0.801367C11.4831 0.9847 11.5748 1.21803 11.5748 1.50137C11.5748 1.7847 11.4831 2.01803 11.2998 2.20137L6.6998 6.80137C6.5998 6.90137 6.49147 6.97203 6.3748 7.01337C6.25814 7.05537 6.13314 7.07637 5.9998 7.07637Z" fill="black"/>
</svg>
