<svg width="308" height="148" viewBox="0 0 308 148" fill="none" xmlns="http://www.w3.org/2000/svg">
<rect x="103.507" y="2.40245" width="202" height="69" rx="30.5" transform="rotate(-0.254099 103.507 2.40245)" fill="white"/>
<path d="M181.197 27.8781L181.207 30.1101L176.767 30.1298L176.831 44.5777L174.095 44.5898L174.031 30.142L169.567 30.1617L169.557 27.9298L181.197 27.8781ZM197.864 27.8042L197.938 44.4841L195.202 44.4962L195.17 37.2003L187.322 37.2351L187.354 44.531L184.618 44.5431L184.544 27.8633L187.28 27.8512L187.312 35.0031L195.16 34.9683L195.128 27.8164L197.864 27.8042ZM204.778 27.7736L204.852 44.4534L202.116 44.4655L202.042 27.7857L204.778 27.7736ZM222.724 44.3741L219.988 44.3863L211.701 31.9669L211.756 44.4228L209.02 44.4349L208.946 27.7311L211.682 27.719L219.969 40.1143L219.914 27.6824L222.65 27.6703L222.724 44.3741ZM236.084 44.3149L229.595 36.8796L229.629 44.3435L226.893 44.3557L226.819 27.6758L229.555 27.6637L229.588 35.2716L236.034 27.635L239.466 27.6197L232.256 36.0038L239.66 44.299L236.084 44.3149Z" fill="#3B3B3B"/>
<rect x="103.507" y="2.40245" width="202" height="69" rx="30.5" transform="rotate(-0.254099 103.507 2.40245)" stroke="#E5E5E5" stroke-width="3"/>
<path d="M28.0312 133.375C26.9953 133.375 26.127 133.025 25.4262 132.324C24.7254 131.623 24.375 130.755 24.375 129.719V85.8437C24.375 84.8078 24.7274 83.9394 25.4323 83.2386C26.1372 82.5378 27.0106 82.1874 28.0526 82.1874C29.0946 82.1874 29.9609 82.5378 30.6516 83.2386C31.3422 83.9394 31.6875 84.8078 31.6875 85.8437V126.062H71.9062C72.9422 126.062 73.8105 126.415 74.5113 127.12C75.2121 127.825 75.5625 128.698 75.5625 129.74C75.5625 130.782 75.2121 131.648 74.5113 132.339C73.8105 133.03 72.9422 133.375 71.9062 133.375H28.0312ZM54.8438 106.562C53.8078 106.562 52.9395 106.212 52.2387 105.511C51.5379 104.81 51.1875 103.942 51.1875 102.906V59.0312C51.1875 57.9953 51.5399 57.1269 52.2448 56.4261C52.9497 55.7253 53.8231 55.3749 54.8651 55.3749C55.9071 55.3749 56.7734 55.7253 57.4641 56.4261C58.1547 57.1269 58.5 57.9953 58.5 59.0312V99.2499H98.7188C99.7547 99.2499 100.623 99.6024 101.324 100.307C102.025 101.012 102.375 101.886 102.375 102.928C102.375 103.97 102.025 104.836 101.324 105.527C100.623 106.217 99.7547 106.562 98.7188 106.562H54.8438Z" fill="#94B49F"/>
</svg>
