<svg width="18" height="18" viewBox="0 0 18 18" fill="none" xmlns="http://www.w3.org/2000/svg">
<path d="M8.99958 10.5555L2.15511 17.4C1.94031 17.6148 1.68105 17.7222 1.37734 17.7222C1.07365 17.7222 0.8144 17.6148 0.599577 17.4C0.384755 17.1852 0.277344 16.9259 0.277344 16.6222C0.277344 16.3185 0.384755 16.0593 0.599577 15.8445L7.44405 9L0.599577 2.15554C0.384755 1.94074 0.277344 1.68148 0.277344 1.37777C0.277344 1.07408 0.384755 0.814826 0.599577 0.600004C0.8144 0.385182 1.07365 0.277771 1.37734 0.277771C1.68105 0.277771 1.94031 0.385182 2.15511 0.600004L8.99958 7.44447L15.844 0.600004C16.0588 0.385182 16.3181 0.277771 16.6218 0.277771C16.9255 0.277771 17.1848 0.385182 17.3996 0.600004C17.6144 0.814826 17.7218 1.07408 17.7218 1.37777C17.7218 1.68148 17.6144 1.94074 17.3996 2.15554L10.5551 9L17.3996 15.8445C17.6144 16.0593 17.7218 16.3185 17.7218 16.6222C17.7218 16.9259 17.6144 17.1852 17.3996 17.4C17.1848 17.6148 16.9255 17.7222 16.6218 17.7222C16.3181 17.7222 16.0588 17.6148 15.844 17.4L8.99958 10.5555Z" fill="#B2B2B2"/>
</svg>
