<svg width="80" height="81" viewBox="0 0 80 81" fill="none" xmlns="http://www.w3.org/2000/svg">
<path d="M72.5 40.5C72.5 31.8805 69.0759 23.614 62.981 17.519C56.886 11.4241 48.6195 8 40 8C31.3805 8 23.114 11.4241 17.019 17.519C10.9241 23.614 7.5 31.8805 7.5 40.5C7.5 49.1195 10.9241 57.386 17.019 63.481C23.114 69.5759 31.3805 73 40 73C48.6195 73 56.886 69.5759 62.981 63.481C69.0759 57.386 72.5 49.1195 72.5 40.5ZM0 40.5C0 29.8913 4.21427 19.7172 11.7157 12.2157C19.2172 4.71427 29.3913 0.5 40 0.5C50.6087 0.5 60.7828 4.71427 68.2843 12.2157C75.7857 19.7172 80 29.8913 80 40.5C80 51.1087 75.7857 61.2828 68.2843 68.7843C60.7828 76.2857 50.6087 80.5 40 80.5C29.3913 80.5 19.2172 76.2857 11.7157 68.7843C4.21427 61.2828 0 51.1087 0 40.5ZM27.75 50.2031C30.125 52.7656 34.1875 55.5 40 55.5C45.8125 55.5 49.875 52.7656 52.25 50.2031C53.6562 48.6875 56.0312 48.5781 57.5469 49.9844C59.0625 51.3906 59.1719 53.7656 57.7656 55.2812C54.3281 59 48.3906 63 40.0156 63C31.6406 63 25.6875 59.0156 22.2656 55.2812C20.8594 53.7656 20.9531 51.3906 22.4844 49.9844C24.0156 48.5781 26.375 48.6719 27.7812 50.2031H27.75ZM34 36.25L33.9688 36.2188C33.9375 36.1875 33.9062 36.1406 33.8594 36.0781C33.7656 35.9531 33.6094 35.7656 33.4219 35.5469C33.0312 35.1094 32.4844 34.5156 31.8281 33.9375C30.4531 32.7188 28.8906 31.75 27.5 31.75C26.1094 31.75 24.5469 32.7188 23.1719 33.9375C22.5156 34.5156 21.9688 35.1094 21.5781 35.5469C21.3906 35.7656 21.2344 35.9531 21.1406 36.0781C21.0938 36.1406 21.0469 36.1875 21.0312 36.2188L21 36.25C20.6719 36.6875 20.1094 36.8594 19.6094 36.6875C19.1094 36.5156 18.75 36.0469 18.75 35.5C18.75 32.7031 19.7969 29.9375 21.3438 27.875C22.875 25.8438 25.0781 24.25 27.5 24.25C29.9219 24.25 32.125 25.8438 33.6562 27.875C35.2031 29.9375 36.25 32.7031 36.25 35.5C36.25 36.0312 35.9062 36.5156 35.3906 36.6875C34.875 36.8594 34.3125 36.6875 34 36.25ZM59 36.25L58.9688 36.2188C58.9375 36.1875 58.9063 36.1406 58.8594 36.0781C58.7656 35.9531 58.6094 35.7656 58.4219 35.5469C58.0312 35.1094 57.4844 34.5156 56.8281 33.9375C55.4531 32.7188 53.8906 31.75 52.5 31.75C51.1094 31.75 49.5469 32.7188 48.1719 33.9375C47.5156 34.5156 46.9688 35.1094 46.5781 35.5469C46.3906 35.7656 46.2344 35.9531 46.1406 36.0781C46.0937 36.1406 46.0469 36.1875 46.0312 36.2188L46 36.25C45.6719 36.6875 45.1094 36.8594 44.6094 36.6875C44.1094 36.5156 43.75 36.0469 43.75 35.5C43.75 32.7031 44.7969 29.9375 46.3438 27.875C47.875 25.8438 50.0781 24.25 52.5 24.25C54.9219 24.25 57.125 25.8438 58.6562 27.875C60.2031 29.9375 61.25 32.7031 61.25 35.5C61.25 36.0312 60.9062 36.5156 60.3906 36.6875C59.875 36.8594 59.3125 36.6875 59 36.25Z" fill="#379237"/>
</svg>
