<svg width="62" height="66" viewBox="0 0 62 66" fill="none" xmlns="http://www.w3.org/2000/svg">
<path d="M21.8244 62.1794V47.4718C18.7664 47.1912 15.7329 46.8645 12.7239 46.4918C9.71481 46.1191 6.70906 45.6309 3.70662 45.0272C2.91729 44.8465 2.29454 44.4381 1.83837 43.8021C1.3822 43.166 1.25073 42.4536 1.44395 41.6649C1.6239 40.9028 2.09023 40.3385 2.84295 39.972C3.59567 39.6054 4.38901 39.5121 5.22295 39.6921C9.47418 40.5677 13.756 41.1827 18.0683 41.5372C22.3806 41.8917 26.6929 42.0689 31.005 42.0689C35.3217 42.0689 39.6368 41.8917 43.9502 41.5372C48.2637 41.1827 52.5526 40.5677 56.8171 39.6921C57.6497 39.5121 58.4255 39.6054 59.1445 39.972C59.8635 40.3385 60.3129 40.9062 60.4929 41.6749C60.6728 42.4436 60.5306 43.1568 60.0663 43.8144C59.6019 44.472 58.9542 44.8908 58.1233 45.0707C55.1496 45.6851 52.1709 46.1696 49.1872 46.5242C46.2035 46.879 43.2063 47.1934 40.1958 47.4675V62.1794C40.1958 62.9946 39.9227 63.6716 39.3766 64.2102C38.8305 64.7489 38.1507 65.0182 37.337 65.0182H24.6632C23.848 65.0182 23.171 64.7489 22.6324 64.2102C22.0937 63.6716 21.8244 62.9946 21.8244 62.1794ZM31.005 36.9856C29.2686 36.9856 27.7833 36.3699 26.549 35.1386C25.3148 33.9073 24.6976 32.4263 24.6976 30.6955C24.6976 28.9665 25.3133 27.4818 26.5445 26.2413C27.7758 25.0008 29.26 24.3805 30.9972 24.3805C32.7323 24.3805 34.2169 24.9996 35.4512 26.2379C36.6855 27.4762 37.3026 28.9594 37.3026 30.6876C37.3026 32.4176 36.6866 33.8998 35.4546 35.1341C34.2226 36.3684 32.7394 36.9856 31.005 36.9856ZM4.8577 27.7971C3.63137 27.7971 2.59881 27.3731 1.76004 26.5251C0.921314 25.677 0.501953 24.6439 0.501953 23.4257C0.501953 22.2652 0.921314 21.2483 1.76004 20.3751C2.59881 19.5019 3.63201 19.0653 4.85962 19.0653C6.0294 19.0653 7.04754 19.5018 7.91404 20.3746C8.78059 21.2475 9.21387 22.2678 9.21387 23.4354C9.21387 24.6525 8.78198 25.6837 7.9182 26.5291C7.05443 27.3745 6.03426 27.7971 4.8577 27.7971ZM57.1481 27.7971C55.9311 27.7971 54.8999 27.3731 54.0545 26.5251C53.2091 25.677 52.7864 24.6439 52.7864 23.4257C52.7864 22.2652 53.2104 21.2483 54.0585 20.3751C54.9065 19.5019 55.9396 19.0653 57.1578 19.0653C58.3184 19.0653 59.3353 19.5018 60.2085 20.3746C61.0817 21.2475 61.5183 22.2678 61.5183 23.4354C61.5183 24.6525 61.0818 25.6837 60.2089 26.5291C59.336 27.3745 58.3157 27.7971 57.1481 27.7971ZM14.9077 14.8388C13.6746 14.8388 12.6387 14.4194 11.8 13.5806C10.9612 12.7419 10.5418 11.7054 10.5418 10.471C10.5418 9.30798 10.9612 8.29323 11.8 7.42673C12.6387 6.56017 13.6753 6.12689 14.9097 6.12689C16.0726 6.12689 17.0874 6.55878 17.954 7.42256C18.8205 8.28634 19.2537 9.30312 19.2537 10.4729C19.2537 11.706 18.8218 12.7419 17.958 13.5806C17.0943 14.4194 16.0775 14.8388 14.9077 14.8388ZM47.1125 14.8388C45.8793 14.8388 44.8434 14.4194 44.0046 13.5806C43.1659 12.7419 42.7465 11.7054 42.7465 10.471C42.7465 9.30798 43.1659 8.29323 44.0046 7.42673C44.8434 6.56017 45.88 6.12689 47.1144 6.12689C48.2773 6.12689 49.2921 6.55878 50.1586 7.42256C51.0252 8.28634 51.4585 9.30312 51.4585 10.4729C51.4585 11.706 51.0266 12.7419 50.1628 13.5806C49.299 14.4194 48.2822 14.8388 47.1125 14.8388ZM30.996 9.38048C29.7789 9.38048 28.7477 8.95645 27.9023 8.10839C27.0569 7.26034 26.6342 6.22723 26.6342 5.00906C26.6342 3.84845 27.0582 2.83156 27.9063 1.95839C28.7543 1.08517 29.7875 0.64856 31.0056 0.64856C32.1662 0.64856 33.1831 1.08503 34.0563 1.95798C34.9295 2.83087 35.366 3.85112 35.366 5.01873C35.366 6.23573 34.9296 7.26695 34.0567 8.11239C33.1838 8.95778 32.1636 9.38048 30.996 9.38048Z" fill="#379237"/>
</svg>
