<svg width="24" height="24" viewBox="0 0 24 24" fill="none" xmlns="http://www.w3.org/2000/svg">
<path d="M18.375 0.000976562H5.625C2.5184 0.000976562 0 2.51937 0 5.62598V18.376C0 21.4826 2.5184 24.001 5.625 24.001H18.375C21.4816 24.001 24 21.4826 24 18.376V5.62598C24 2.51937 21.4816 0.000976562 18.375 0.000976562Z" fill="url(#paint0_radial_127_126)"/>
<path d="M18.375 0.000976562H5.625C2.5184 0.000976562 0 2.51937 0 5.62598V18.376C0 21.4826 2.5184 24.001 5.625 24.001H18.375C21.4816 24.001 24 21.4826 24 18.376V5.62598C24 2.51937 21.4816 0.000976562 18.375 0.000976562Z" fill="url(#paint1_radial_127_126)"/>
<path d="M12.0008 2.62598C9.45478 2.62598 9.13519 2.63713 8.13525 2.6826C7.13719 2.72835 6.45591 2.88632 5.85984 3.11816C5.24316 3.3576 4.72013 3.67795 4.19906 4.1992C3.67753 4.72035 3.35719 5.24338 3.117 5.85979C2.8845 6.45604 2.72634 7.1376 2.68144 8.1352C2.63672 9.13523 2.625 9.45491 2.625 12.0011C2.625 14.5472 2.63625 14.8658 2.68163 15.8657C2.72756 16.8638 2.88553 17.5451 3.11719 18.1411C3.35681 18.7578 3.67716 19.2809 4.19841 19.8019C4.71938 20.3234 5.24241 20.6445 5.85862 20.884C6.45516 21.1158 7.13653 21.2738 8.13441 21.3195C9.13444 21.365 9.45375 21.3762 11.9997 21.3762C14.5461 21.3762 14.8646 21.365 15.8646 21.3195C16.8626 21.2738 17.5447 21.1158 18.1412 20.884C18.7576 20.6445 19.2799 20.3234 19.8007 19.8019C20.3223 19.2809 20.6425 18.7578 20.8828 18.1414C21.1133 17.5451 21.2715 16.8636 21.3184 15.8659C21.3633 14.866 21.375 14.5472 21.375 12.0011C21.375 9.45491 21.3633 9.13541 21.3184 8.13538C21.2715 7.13732 21.1133 6.45613 20.8828 5.86007C20.6425 5.24338 20.3223 4.72035 19.8007 4.1992C19.2793 3.67776 18.7578 3.35741 18.1406 3.11826C17.543 2.88632 16.8613 2.72826 15.8632 2.6826C14.8632 2.63713 14.5448 2.62598 11.9979 2.62598H12.0008ZM11.1598 4.31545C11.4095 4.31507 11.688 4.31545 12.0008 4.31545C14.5041 4.31545 14.8007 4.32445 15.7892 4.36935C16.7032 4.41116 17.1994 4.56388 17.5298 4.69223C17.9674 4.8621 18.2793 5.06526 18.6072 5.39348C18.9353 5.7216 19.1384 6.03407 19.3088 6.4716C19.4371 6.8016 19.59 7.29773 19.6316 8.21179C19.6765 9.2001 19.6863 9.49691 19.6863 11.9989C19.6863 14.5009 19.6765 14.7978 19.6316 15.786C19.5898 16.7001 19.4371 17.1962 19.3088 17.5263C19.1389 17.9639 18.9353 18.2754 18.6072 18.6033C18.2791 18.9314 17.9676 19.1345 17.5298 19.3045C17.1997 19.4334 16.7032 19.5857 15.7892 19.6275C14.8009 19.6724 14.5041 19.6822 12.0008 19.6822C9.49753 19.6822 9.20081 19.6724 8.21259 19.6275C7.29853 19.5854 6.80241 19.4326 6.47166 19.3043C6.03422 19.1343 5.72166 18.9313 5.39353 18.6031C5.06541 18.275 4.86234 17.9633 4.692 17.5256C4.56366 17.1955 4.41075 16.6994 4.36913 15.7853C4.32422 14.797 4.31522 14.5002 4.31522 11.9966C4.31522 9.49307 4.32422 9.19776 4.36913 8.20944C4.41094 7.29538 4.56366 6.79926 4.692 6.46879C4.86197 6.03126 5.06541 5.71879 5.39363 5.39066C5.72175 5.06254 6.03422 4.85938 6.47175 4.68913C6.80222 4.56023 7.29853 4.40788 8.21259 4.36588C9.07744 4.32679 9.41259 4.31507 11.1598 4.3131V4.31545ZM17.0052 5.87207C16.3841 5.87207 15.8802 6.37551 15.8802 6.9967C15.8802 7.61779 16.3841 8.1217 17.0052 8.1217C17.6263 8.1217 18.1302 7.61779 18.1302 6.9967C18.1302 6.3756 17.6263 5.8717 17.0052 5.8717V5.87207ZM12.0008 7.18654C9.34209 7.18654 7.18641 9.34223 7.18641 12.0011C7.18641 14.6599 9.34209 16.8146 12.0008 16.8146C14.6597 16.8146 16.8146 14.6599 16.8146 12.0011C16.8146 9.34232 14.6595 7.18654 12.0007 7.18654H12.0008ZM12.0008 8.87601C13.7267 8.87601 15.1259 10.275 15.1259 12.0011C15.1259 13.7269 13.7267 15.1261 12.0008 15.1261C10.2749 15.1261 8.87588 13.7269 8.87588 12.0011C8.87588 10.275 10.2749 8.87601 12.0008 8.87601Z" fill="white"/>
<defs>
<radialGradient id="paint0_radial_127_126" cx="0" cy="0" r="1" gradientUnits="userSpaceOnUse" gradientTransform="translate(6.375 25.8494) rotate(-90) scale(23.7858 22.1227)">
<stop stop-color="#FFDD55"/>
<stop offset="0.1" stop-color="#FFDD55"/>
<stop offset="0.5" stop-color="#FF543E"/>
<stop offset="1" stop-color="#C837AB"/>
</radialGradient>
<radialGradient id="paint1_radial_127_126" cx="0" cy="0" r="1" gradientUnits="userSpaceOnUse" gradientTransform="translate(-4.02009 1.72982) rotate(78.681) scale(10.6324 43.827)">
<stop stop-color="#3771C8"/>
<stop offset="0.128" stop-color="#3771C8"/>
<stop offset="1" stop-color="#6600FF" stop-opacity="0"/>
</radialGradient>
</defs>
</svg>
