<svg width="68" height="69" viewBox="0 0 68 69" fill="none" xmlns="http://www.w3.org/2000/svg">
<path d="M33.9995 49.9999C38.3328 49.9999 41.9995 48.4999 44.9995 45.4999C47.9995 42.4999 49.4995 38.8333 49.4995 34.4999C49.4995 30.1666 47.9995 26.4999 44.9995 23.4999C41.9995 20.4999 38.3328 18.9999 33.9995 18.9999C29.6661 18.9999 25.9995 20.4999 22.9995 23.4999C19.9995 26.4999 18.4995 30.1666 18.4995 34.4999C18.4995 38.8333 19.9995 42.4999 22.9995 45.4999C25.9995 48.4999 29.6661 49.9999 33.9995 49.9999ZM34.0022 68.3314C29.3651 68.3314 24.989 67.4459 20.8738 65.6749C16.7586 63.9039 13.1644 61.4817 10.0911 58.4084C7.01772 55.335 4.59552 51.7417 2.82447 47.6284C1.05347 43.515 0.167969 39.1398 0.167969 34.5027C0.167969 29.81 1.05347 25.4061 2.82447 21.2909C4.59552 17.1758 7.01666 13.595 10.0879 10.5488C13.1592 7.50255 16.752 5.09094 20.8663 3.31394C24.9806 1.53694 29.3568 0.648438 33.9951 0.648438C38.6888 0.648438 43.0941 1.53644 47.2108 3.31244C51.3276 5.08838 54.9086 7.4986 57.9538 10.5431C60.9991 13.5876 63.4099 17.1677 65.1863 21.2834C66.9627 25.3991 67.851 29.8046 67.851 34.4999C67.851 39.1389 66.9625 43.5158 65.1855 47.6308C63.4085 51.7457 60.9969 55.3391 57.9506 58.4108C54.9044 61.4825 51.3246 63.9039 47.2112 65.6749C43.0979 67.4459 38.6949 68.3314 34.0022 68.3314ZM33.9995 62.6539C41.8352 62.6539 48.4865 59.9108 53.9533 54.4246C59.4201 48.9384 62.1535 42.2968 62.1535 34.4999C62.1535 26.6642 59.4201 20.0129 53.9533 14.5461C48.4865 9.07933 41.8319 6.34594 33.9895 6.34594C26.2026 6.34594 19.5653 9.07933 14.0774 14.5461C8.58944 20.0129 5.84547 26.6676 5.84547 34.5099C5.84547 42.2968 8.58858 48.9341 14.0748 54.422C19.561 59.91 26.2026 62.6539 33.9995 62.6539Z" fill="#379237"/>
</svg>
