<svg width="76" height="67" viewBox="0 0 76 67" fill="none" xmlns="http://www.w3.org/2000/svg">
<path d="M9.875 5.21429C9.875 2.6067 7.78027 0.5 5.1875 0.5C2.59473 0.5 0.5 2.6067 0.5 5.21429V54.7143C0.5 61.2259 5.74414 66.5 12.2188 66.5H70.8125C73.4053 66.5 75.5 64.3933 75.5 61.7857C75.5 59.1781 73.4053 57.0714 70.8125 57.0714H12.2188C10.9297 57.0714 9.875 56.0107 9.875 54.7143V5.21429ZM69.4355 17.9723C71.2666 16.1308 71.2666 13.1402 69.4355 11.2987C67.6045 9.45714 64.6309 9.45714 62.7998 11.2987L47.375 26.8263L38.9668 18.3701C37.1357 16.5286 34.1621 16.5286 32.3311 18.3701L15.9248 34.8701C14.0938 36.7116 14.0938 39.7022 15.9248 41.5438C17.7559 43.3853 20.7295 43.3853 22.5605 41.5438L35.6562 28.3879L44.0645 36.8442C45.8955 38.6857 48.8691 38.6857 50.7002 36.8442L69.4502 17.9871L69.4355 17.9723Z" fill="#379237"/>
</svg>
