<svg width="27" height="23" viewBox="0 0 27 23" fill="none" xmlns="http://www.w3.org/2000/svg">
<path d="M16.4148 0.0482545C17.7352 0.315195 18.5934 1.61396 18.3293 2.94867L18.2125 3.53388C17.9434 4.90452 17.4457 6.20842 16.75 7.39425H24.0625C25.4082 7.39425 26.5 8.49795 26.5 9.85832C26.5 10.808 25.9668 11.6345 25.1848 12.0452C25.7383 12.4969 26.0938 13.1899 26.0938 13.9651C26.0938 15.1663 25.2406 16.1674 24.1184 16.383C24.3418 16.7577 24.4688 17.194 24.4688 17.6612C24.4688 18.7546 23.7629 19.6838 22.7879 20.0021C22.8234 20.1715 22.8438 20.3511 22.8438 20.5359C22.8438 21.8963 21.752 23 20.4062 23H15.4551C14.4902 23 13.5508 22.7125 12.7484 22.1735L10.7934 20.8542C9.4375 19.9405 8.625 18.4004 8.625 16.7526V14.7864V12.3224V11.0441C8.625 9.54517 9.30039 8.13347 10.4531 7.19405L10.8289 6.89117C12.1746 5.80287 13.0938 4.2731 13.4289 2.56879L13.5457 1.98357C13.8098 0.64887 15.0945 -0.218686 16.4148 0.0482545ZM2.125 8.21561H5.375C6.27383 8.21561 7 8.94969 7 9.85832V21.3573C7 22.2659 6.27383 23 5.375 23H2.125C1.22617 23 0.5 22.2659 0.5 21.3573V9.85832C0.5 8.94969 1.22617 8.21561 2.125 8.21561Z" fill="#FBFBFB"/>
</svg>
