<svg width="49" height="49" viewBox="0 0 49 49" fill="none" xmlns="http://www.w3.org/2000/svg">
<path d="M27.4148 13.0483C28.7352 13.3152 29.5934 14.614 29.3293 15.9487L29.2125 16.5339C28.9434 17.9045 28.4457 19.2084 27.75 20.3942H35.0625C36.4082 20.3942 37.5 21.4979 37.5 22.8583C37.5 23.808 36.9668 24.6345 36.1848 25.0452C36.7383 25.4969 37.0938 26.1899 37.0938 26.9651C37.0938 28.1663 36.2406 29.1674 35.1184 29.383C35.3418 29.7577 35.4688 30.194 35.4688 30.6612C35.4688 31.7546 34.7629 32.6838 33.7879 33.0021C33.8234 33.1715 33.8438 33.3511 33.8438 33.5359C33.8438 34.8963 32.752 36 31.4062 36H26.4551C25.4902 36 24.5508 35.7125 23.7484 35.1735L21.7934 33.8542C20.4375 32.9405 19.625 31.4004 19.625 29.7526V27.7864V25.3224V24.0441C19.625 22.5452 20.3004 21.1335 21.4531 20.194L21.8289 19.8912C23.1746 18.8029 24.0938 17.2731 24.4289 15.5688L24.5457 14.9836C24.8098 13.6489 26.0945 12.7813 27.4148 13.0483ZM13.125 21.2156H16.375C17.2738 21.2156 18 21.9497 18 22.8583V34.3573C18 35.2659 17.2738 36 16.375 36H13.125C12.2262 36 11.5 35.2659 11.5 34.3573V22.8583C11.5 21.9497 12.2262 21.2156 13.125 21.2156Z" fill="#FBFBFB"/>
<rect x="1" y="1" width="47" height="47" rx="23.5" stroke="#EAF0EC" stroke-width="2"/>
</svg>
