<svg width="48" height="48" viewBox="0 0 48 48" fill="none" xmlns="http://www.w3.org/2000/svg">
<g clip-path="url(#clip0_461_176)">
<path d="M30.5714 21.5714C32.4871 21.5714 34.2614 22.1757 35.7143 23.1914V17.7143C35.7143 16.2871 34.57 15.1429 33.1429 15.1429H28V12.5714C28 11.1443 26.8557 10 25.4286 10H20.2857C18.8586 10 17.7143 11.1443 17.7143 12.5714V15.1429H12.5714C11.1443 15.1429 10.0129 16.2871 10.0129 17.7143L10 31.8571C10 33.2843 11.1443 34.4286 12.5714 34.4286H22.4457C21.8929 33.2586 21.5714 31.96 21.5714 30.5714C21.5714 25.5957 25.5957 21.5714 30.5714 21.5714ZM20.2857 12.5714H25.4286V15.1429H20.2857V12.5714Z" fill="#FBFBFB"/>
<path d="M30.5711 24.1431C27.0226 24.1431 24.1426 27.0231 24.1426 30.5716C24.1426 34.1202 27.0226 37.0002 30.5711 37.0002C34.1197 37.0002 36.9997 34.1202 36.9997 30.5716C36.9997 27.0231 34.1197 24.1431 30.5711 24.1431ZM32.6926 33.5931L29.9283 30.8288V26.7145H31.214V30.3016L33.5926 32.6802L32.6926 33.5931Z" fill="#FBFBFB"/>
</g>
<rect x="1" y="1" width="46" height="46" rx="23" stroke="#FBFBFB" stroke-width="2"/>
<defs>
<clipPath id="clip0_461_176">
<rect width="48" height="48" rx="24" fill="white"/>
</clipPath>
</defs>
</svg>
