<svg width="76" height="78" viewBox="0 0 76 78" fill="none" xmlns="http://www.w3.org/2000/svg">
<path d="M63.7659 22.6833C63.4603 22.6833 63.2006 22.6222 62.9867 22.5C62.7728 22.3778 62.6048 22.1639 62.4826 21.8583L59.8242 15.625L53.1326 12.6917C52.827 12.5694 52.6131 12.4014 52.4909 12.1875C52.3687 11.9736 52.3076 11.7139 52.3076 11.4083C52.3076 11.1028 52.3687 10.8431 52.4909 10.6292C52.6131 10.4153 52.827 10.2472 53.1326 10.125L59.8242 7.28333L62.4826 1.325C62.6048 1.01944 62.7728 0.805556 62.9867 0.683333C63.2006 0.561111 63.4603 0.5 63.7659 0.5C64.0714 0.5 64.3312 0.561111 64.5451 0.683333C64.7589 0.805556 64.927 1.01944 65.0492 1.325L67.7076 7.28333L74.3992 10.125C74.7048 10.2472 74.9187 10.4153 75.0409 10.6292C75.1631 10.8431 75.2242 11.1028 75.2242 11.4083C75.2242 11.7139 75.1631 11.9736 75.0409 12.1875C74.9187 12.4014 74.7048 12.5694 74.3992 12.6917L67.7076 15.625L65.0492 21.8583C64.927 22.1639 64.7589 22.3778 64.5451 22.5C64.3312 22.6222 64.0714 22.6833 63.7659 22.6833ZM63.7659 77.3167C63.5214 77.3167 63.277 77.2556 63.0326 77.1333C62.7881 77.0111 62.6048 76.7972 62.4826 76.4917L59.8242 70.5333L53.2242 67.6917C52.9187 67.5694 52.7048 67.4014 52.5826 67.1875C52.4603 66.9736 52.3992 66.7139 52.3992 66.4083C52.3992 66.1028 52.4603 65.8431 52.5826 65.6292C52.7048 65.4153 52.9187 65.2472 53.2242 65.125L59.8242 62.2833L62.4826 55.9583C62.6048 55.6528 62.7728 55.4389 62.9867 55.3167C63.2006 55.1944 63.4603 55.1333 63.7659 55.1333C64.0714 55.1333 64.3312 55.1944 64.5451 55.3167C64.7589 55.4389 64.927 55.6528 65.0492 55.9583L67.7076 62.2833L74.3076 65.125C74.6131 65.2472 74.827 65.4153 74.9492 65.6292C75.0714 65.8431 75.1326 66.1028 75.1326 66.4083C75.1326 66.7139 75.0714 66.9736 74.9492 67.1875C74.827 67.4014 74.6131 67.5694 74.3076 67.6917L67.7076 70.5333L65.0492 76.4917C64.927 76.7972 64.7437 77.0111 64.4992 77.1333C64.2548 77.2556 64.0103 77.3167 63.7659 77.3167ZM23.5242 61.4583C23.0353 61.4583 22.5617 61.3208 22.1034 61.0458C21.6451 60.7708 21.2937 60.3889 21.0492 59.9L15.0909 47.1583L2.25755 41.3833C1.76866 41.1389 1.38672 40.7875 1.11172 40.3292C0.836719 39.8708 0.699219 39.3972 0.699219 38.9083C0.699219 38.4194 0.836719 37.9458 1.11172 37.4875C1.38672 37.0292 1.76866 36.6778 2.25755 36.4333L15.0909 30.6583L21.0492 18.0083C21.2937 17.4583 21.6451 17.0458 22.1034 16.7708C22.5617 16.4958 23.0353 16.3583 23.5242 16.3583C24.0131 16.3583 24.4867 16.4958 24.9451 16.7708C25.4034 17.0458 25.7548 17.4278 25.9992 17.9167L32.0492 30.6583L44.7909 36.4333C45.3409 36.6778 45.7534 37.0292 46.0284 37.4875C46.3034 37.9458 46.4409 38.4194 46.4409 38.9083C46.4409 39.3972 46.3034 39.8708 46.0284 40.3292C45.7534 40.7875 45.3409 41.1389 44.7909 41.3833L32.0492 47.1583L25.9992 59.9C25.7548 60.45 25.4034 60.8472 24.9451 61.0917C24.4867 61.3361 24.0131 61.4583 23.5242 61.4583ZM23.5242 51.65L27.9242 42.85L36.9076 38.9083L27.9242 34.9667L23.5242 26.1667L19.2159 34.9667L10.1409 38.9083L19.2159 42.85L23.5242 51.65Z" fill="#7B9684"/>
</svg>
