<svg width="66" height="67" viewBox="0 0 66 67" fill="none" xmlns="http://www.w3.org/2000/svg">
<path d="M26.9168 66.8913H6.17945C4.64617 66.8913 3.31659 66.3264 2.1907 65.1966C1.06487 64.0668 0.501953 62.7326 0.501953 61.1938V13.0525C0.501953 11.5192 0.998925 10.1896 1.99287 9.06379C2.98681 7.9379 3.88234 7.37496 4.67945 7.37496H20.9548C21.3968 5.40396 22.4145 3.78679 24.0078 2.52346C25.6011 1.26018 27.4318 0.62854 29.5001 0.62854C31.5533 0.62854 33.377 1.26018 34.9711 2.52346C36.5653 3.78679 37.5968 5.40396 38.0654 7.37496H54.3208C55.8595 7.37496 57.1938 7.9379 58.3235 9.06379C59.4534 10.1896 60.0183 11.5192 60.0183 13.0525V29.75H54.3208V13.0525H45.4875V18.5869C45.4875 20.0416 44.9711 21.2884 43.9384 22.3274C42.9056 23.3663 41.6557 23.8858 40.1885 23.8858H20.3117C18.857 23.8858 17.6101 23.3663 16.5712 22.3274C15.5323 21.2884 15.0128 20.0416 15.0128 18.5869V13.0525H6.17945V61.1938H26.9168V66.8913ZM42.6668 56.5452L60.4548 38.7572C61.0079 38.204 61.6585 37.9413 62.4063 37.9691C63.1542 37.9969 63.8098 38.2874 64.3733 38.8405C64.9265 39.404 65.203 40.0735 65.203 40.8492C65.203 41.6248 64.9265 42.2892 64.3733 42.8424L44.656 62.5398C44.0895 63.1062 43.4265 63.3895 42.6668 63.3895C41.9071 63.3895 41.2441 63.1062 40.6776 62.5398L31.0635 52.9257C30.4971 52.3725 30.2278 51.7081 30.2555 50.9325C30.2833 50.1569 30.5804 49.4873 31.1469 48.9239C31.7 48.3707 32.3644 48.0941 33.14 48.0941C33.9156 48.0941 34.5852 48.3707 35.1487 48.9239L42.6668 56.5452ZM31.0001 12.5C31.9446 12.5 32.7362 12.1805 33.3751 11.5416C34.014 10.9027 34.3335 10.1111 34.3335 9.16662C34.3335 8.22218 34.014 7.43051 33.3751 6.79162C32.7362 6.15273 31.9446 5.83329 31.0001 5.83329C30.0557 5.83329 29.264 6.15273 28.6251 6.79162C27.9862 7.43051 27.6668 8.22218 27.6668 9.16662C27.6668 10.1111 27.9862 10.9027 28.6251 11.5416C29.264 12.1805 30.0557 12.5 31.0001 12.5Z" fill="#379237"/>
</svg>
