<svg width="24" height="24" viewBox="0 0 24 24" fill="none" xmlns="http://www.w3.org/2000/svg">
<g clip-path="url(#clip0_609_376)">
<path d="M0.51183 11.8563C0.511271 13.8728 1.03816 15.8417 2.04002 17.5771L0.416016 23.5066L6.48411 21.9156C8.16246 22.8292 10.0429 23.308 11.9539 23.3081H11.9589C18.2673 23.3081 23.4024 18.1748 23.4051 11.8653C23.4063 8.80792 22.2168 5.93295 20.0555 3.76997C17.8945 1.60718 15.0206 0.415458 11.9584 0.414062C5.64932 0.414062 0.514527 5.54709 0.511923 11.8563" fill="url(#paint0_linear_609_376)"/>
<path d="M0.103441 11.8527C0.10279 13.9417 0.648557 15.981 1.68614 17.7786L0.00390625 23.9207L6.28958 22.2726C8.02149 23.2168 9.97144 23.7147 11.9556 23.7154H11.9607C18.4954 23.7154 23.8151 18.3975 23.8179 11.8621C23.819 8.69488 22.5866 5.71656 20.3481 3.47609C18.1093 1.23591 15.1326 0.00130233 11.9607 0C5.42493 0 0.106046 5.31721 0.103441 11.8527ZM3.8467 17.469L3.612 17.0965C2.62539 15.5277 2.10465 13.7149 2.10539 11.8534C2.10753 6.4213 6.52837 2.00186 11.9645 2.00186C14.597 2.00298 17.0711 3.02921 18.9319 4.89116C20.7927 6.7533 21.8166 9.22865 21.8159 11.8614C21.8135 17.2935 17.3926 21.7135 11.9607 21.7135H11.9568C10.1882 21.7126 8.45358 21.2376 6.94084 20.34L6.58084 20.1265L2.85079 21.1045L3.8467 17.4689V17.469Z" fill="url(#paint1_linear_609_376)"/>
<path d="M8.99694 6.89771C8.77499 6.4044 8.54141 6.39445 8.33034 6.3858C8.1575 6.37836 7.95992 6.37892 7.76252 6.37892C7.56494 6.37892 7.24392 6.45324 6.97257 6.74952C6.70094 7.04608 5.93555 7.76273 5.93555 9.22031C5.93555 10.678 6.99722 12.0866 7.14522 12.2845C7.29341 12.482 9.1948 15.5689 12.2062 16.7564C14.7088 17.7433 15.2182 17.547 15.7613 17.4975C16.3046 17.4482 17.5142 16.7811 17.761 16.0892C18.008 15.3975 18.008 14.8046 17.934 14.6807C17.8599 14.5572 17.6623 14.4831 17.3661 14.335C17.0697 14.1868 15.6131 13.4701 15.3416 13.3712C15.07 13.2724 14.8725 13.2231 14.6749 13.5198C14.4773 13.8159 13.91 14.4831 13.737 14.6807C13.5643 14.8787 13.3914 14.9034 13.0952 14.7552C12.7987 14.6065 11.8446 14.2941 10.7126 13.2849C9.83183 12.4996 9.23722 11.5298 9.06438 11.2331C8.89155 10.937 9.04587 10.7764 9.19443 10.6288C9.32755 10.496 9.4908 10.2828 9.63908 10.1099C9.7868 9.93687 9.83611 9.81343 9.9349 9.61585C10.0338 9.41808 9.98429 9.24506 9.91034 9.09687C9.83611 8.94868 9.26038 7.48347 8.99694 6.89771Z" fill="white"/>
</g>
<defs>
<linearGradient id="paint0_linear_609_376" x1="1149.87" y1="2309.67" x2="1149.87" y2="0.414062" gradientUnits="userSpaceOnUse">
<stop stop-color="#1FAF38"/>
<stop offset="1" stop-color="#60D669"/>
</linearGradient>
<linearGradient id="paint1_linear_609_376" x1="1190.7" y1="2392.07" x2="1190.7" y2="0" gradientUnits="userSpaceOnUse">
<stop stop-color="#F9F9F9"/>
<stop offset="1" stop-color="white"/>
</linearGradient>
<clipPath id="clip0_609_376">
<rect width="23.82" height="24" fill="white"/>
</clipPath>
</defs>
</svg>
