<svg width="24" height="24" viewBox="0 0 24 24" fill="none" xmlns="http://www.w3.org/2000/svg">
<g clip-path="url(#clip0_267_5)">
<path d="M21.3333 3.33337H2.66667C1.95942 3.33337 1.28115 3.61433 0.781049 4.11442C0.280952 4.61452 0 5.2928 0 6.00004L0 12H24V6.00004C24 5.2928 23.719 4.61452 23.219 4.11442C22.7189 3.61433 22.0406 3.33337 21.3333 3.33337Z" fill="#DC1F26"/>
<path d="M24 18C24 18.7072 23.719 19.3855 23.219 19.8856C22.7189 20.3857 22.0406 20.6667 21.3333 20.6667H2.66667C1.95942 20.6667 1.28115 20.3857 0.781049 19.8856C0.280952 19.3855 0 18.7072 0 18V12H24V18Z" fill="#EEEEEE"/>
</g>
<defs>
<clipPath id="clip0_267_5">
<rect width="24" height="24" fill="white"/>
</clipPath>
</defs>
</svg>
